<svg width="92" height="113" viewBox="0 0 92 113" fill="none" xmlns="http://www.w3.org/2000/svg">
<g filter="url(#filter0_d_279_110264)">
<path d="M86.1484 26.8203L60.9297 1.60156C60.2266 0.898438 59.2773 0.5 58.2812 0.5H8.5C6.42578 0.5 4.75 2.17578 4.75 4.25V101.75C4.75 103.824 6.42578 105.5 8.5 105.5H83.5C85.5742 105.5 87.25 103.824 87.25 101.75V29.4805C87.25 28.4844 86.8516 27.5234 86.1484 26.8203ZM56.5469 9.14844L78.6016 31.2031H56.5469V9.14844ZM78.8125 97.0625H13.1875V8.9375H48.5781V34.25C48.5781 35.5554 49.0967 36.8073 50.0197 37.7303C50.9427 38.6533 52.1946 39.1719 53.5 39.1719H78.8125V97.0625Z" fill="black"/>
</g>
<defs>
<filter id="filter0_d_279_110264" x="0.75" y="0.5" width="90.5" height="113" filterUnits="userSpaceOnUse" color-interpolation-filters="sRGB">
<feFlood flood-opacity="0" result="BackgroundImageFix"/>
<feColorMatrix in="SourceAlpha" type="matrix" values="0 0 0 0 0 0 0 0 0 0 0 0 0 0 0 0 0 0 127 0" result="hardAlpha"/>
<feOffset dy="4"/>
<feGaussianBlur stdDeviation="2"/>
<feComposite in2="hardAlpha" operator="out"/>
<feColorMatrix type="matrix" values="0 0 0 0 0 0 0 0 0 0 0 0 0 0 0 0 0 0 0.25 0"/>
<feBlend mode="normal" in2="BackgroundImageFix" result="effect1_dropShadow_279_110264"/>
<feBlend mode="normal" in="SourceGraphic" in2="effect1_dropShadow_279_110264" result="shape"/>
</filter>
</defs>
</svg>
