<svg width="12" height="12" viewBox="0 0 12 12" fill="none" xmlns="http://www.w3.org/2000/svg">
<path d="M0.94401 3.1716L5.44401 5.589C5.59521 5.67 5.79081 5.7084 5.98761 5.7084C6.18441 5.7084 6.38001 5.67 6.53121 5.589L11.0312 3.1716C11.3246 3.0138 11.6018 2.4 11.0636 2.4H0.91221C0.37401 2.4 0.65121 3.0138 0.94401 3.1716V3.1716ZM11.1674 4.4934L6.53121 6.9096C6.32721 7.0164 6.18441 7.029 5.98761 7.029C5.79081 7.029 5.64801 7.0164 5.44401 6.9096C5.24001 6.8028 1.16421 4.6662 0.83121 4.4928C0.59721 4.3704 0.59961 4.5138 0.59961 4.6242V9C0.59961 9.252 0.93921 9.6 1.19961 9.6H10.7996C11.06 9.6 11.3996 9.252 11.3996 9V4.6248C11.3996 4.5144 11.402 4.371 11.1674 4.4934V4.4934Z" fill="white"/>
</svg>
