<svg width="10" height="10" viewBox="0 0 10 10" fill="none" xmlns="http://www.w3.org/2000/svg">
<path d="M5.50014 3C6.55164 3 7.00014 3.4485 7.00014 4.5H8.00014C8.00014 2.8875 7.11264 2 5.50014 2V3ZM7.21114 5.7215C7.11506 5.63418 6.98881 5.5876 6.85904 5.59162C6.72927 5.59563 6.60614 5.64991 6.51564 5.743L5.31914 6.9735C5.03114 6.9185 4.45214 6.738 3.85614 6.1435C3.26014 5.547 3.07964 4.9665 3.02614 4.6805L4.25564 3.4835C4.34885 3.39306 4.40321 3.26991 4.40722 3.1401C4.41123 3.0103 4.36458 2.88402 4.27714 2.788L2.42964 0.7565C2.34216 0.660179 2.22058 0.601752 2.09072 0.59363C1.96085 0.585508 1.83294 0.628329 1.73414 0.713L0.649141 1.6435C0.562697 1.73026 0.511101 1.84573 0.504141 1.968C0.496641 2.093 0.353641 5.054 2.64964 7.351C4.65264 9.3535 7.16164 9.5 7.85264 9.5C7.95364 9.5 8.01564 9.497 8.03214 9.496C8.1544 9.48916 8.2698 9.43733 8.35614 9.3505L9.28614 8.265C9.37087 8.16626 9.41378 8.03839 9.40575 7.90853C9.39772 7.77866 9.33939 7.65705 9.24314 7.5695L7.21114 5.7215Z" fill="white"/>
</svg>
