<?xml version="1.0" standalone="no"?>
<!DOCTYPE svg PUBLIC "-//W3C//DTD SVG 20010904//EN"
 "http://www.w3.org/TR/2001/REC-SVG-20010904/DTD/svg10.dtd">
<svg version="1.0" xmlns="http://www.w3.org/2000/svg"
 width="227.000000pt" height="227.000000pt" viewBox="0 0 227.000000 227.000000"
 preserveAspectRatio="xMidYMid meet">
<metadata>
Created by potrace 1.14, written by Peter Selinger 2001-2017
</metadata>
<g transform="translate(0.000000,227.000000) scale(0.100000,-0.100000)"
fill="#000000" stroke="none">
<path d="M861 2253 c-8 -3 -24 -16 -35 -27 -34 -36 -77 -61 -149 -90 -67 -27
-70 -27 -104 -11 -38 18 -53 12 -56 -23 -1 -18 -6 -21 -34 -18 -28 4 -34 1
-39 -20 -3 -13 -7 -24 -8 -24 0 0 -16 4 -33 9 -27 8 -33 6 -38 -9 -3 -10 -4
-24 -3 -31 2 -9 -7 -14 -22 -15 -37 -1 -59 -14 -53 -30 3 -8 0 -20 -6 -28 -6
-7 -9 -15 -6 -17 2 -3 -7 -18 -20 -33 -13 -16 -27 -37 -30 -47 -4 -11 -11 -19
-16 -19 -5 0 -8 -3 -7 -7 1 -5 -5 -21 -12 -38 -7 -16 -16 -61 -19 -100 -4 -41
-14 -81 -25 -97 -12 -19 -16 -36 -11 -57 3 -17 2 -32 -4 -36 -16 -10 -13 -61
4 -75 11 -9 13 -16 5 -24 -16 -16 -12 -41 9 -60 11 -10 17 -27 15 -42 -1 -15
6 -34 18 -46 17 -17 24 -32 27 -60 1 -4 10 -9 21 -13 14 -4 17 -11 11 -23 -4
-9 -12 -26 -17 -37 -21 -45 -3 -129 39 -173 28 -30 101 -67 149 -76 21 -4 37
-10 37 -14 -4 -27 6 -48 37 -80 20 -20 37 -36 37 -34 1 2 9 1 17 -2 8 -3 29
-7 45 -9 17 -3 29 -9 28 -14 -6 -31 78 -83 134 -83 l24 0 -21 22 c-11 12 -20
28 -20 35 0 7 -4 13 -10 13 -12 0 -13 90 -1 122 11 30 79 98 97 98 8 0 14 6
14 13 -1 15 -24 47 -36 47 -8 0 -50 33 -98 76 -19 17 -19 17 0 30 60 41 59 66
-1 123 -25 24 -63 66 -84 95 -43 58 -116 196 -104 196 5 0 3 4 -2 8 -27 19
-41 184 -17 202 4 3 13 17 21 33 8 15 18 27 23 27 4 0 8 5 8 12 0 12 59 69
125 121 131 104 227 230 238 314 3 23 -12 55 -25 52 -2 0 -9 -3 -17 -6z"/>
<path d="M1392 2249 c-22 -9 -23 -11 -9 -74 6 -27 34 -83 52 -105 35 -43 139
-145 175 -172 82 -60 175 -170 186 -220 1 -5 2 -9 4 -10 7 -10 7 -44 0 -53 -5
-6 -5 -17 -1 -24 9 -14 -33 -134 -72 -206 -30 -56 -98 -143 -145 -187 -62 -58
-61 -76 2 -121 16 -12 17 -15 3 -28 -22 -21 -48 -41 -87 -69 -62 -43 -63 -51
-17 -82 97 -64 113 -168 42 -265 -16 -21 -16 -21 20 -13 64 15 92 31 110 64
11 21 26 33 41 34 42 3 90 29 111 58 12 16 21 32 22 37 1 4 2 9 2 12 1 3 2 10
3 17 0 6 10 12 20 14 11 2 31 6 45 10 14 4 28 8 31 8 14 3 70 41 70 48 0 4 6
8 13 8 12 0 44 58 39 73 -1 4 2 7 7 7 4 0 6 19 4 43 -2 23 -5 48 -5 55 -1 6
-6 12 -11 12 -6 0 -7 3 -4 7 4 3 2 12 -4 19 -9 11 -7 15 7 21 25 9 33 22 29
44 -2 11 4 20 16 24 17 6 25 30 20 59 -1 5 5 16 14 26 18 20 22 46 10 73 -5
12 -2 17 10 17 14 0 16 6 10 38 -3 20 -6 52 -6 70 0 19 -9 48 -20 65 -11 19
-19 50 -19 77 0 64 -22 127 -69 200 -23 35 -46 80 -51 101 -9 34 -13 37 -43
36 -26 -2 -32 2 -30 17 2 30 -18 44 -49 36 -30 -9 -39 -4 -31 16 5 14 -11 19
-50 16 -12 -1 -22 8 -28 27 -9 25 -15 29 -37 25 -15 -3 -30 -10 -33 -16 -13
-20 -167 44 -218 91 -50 47 -55 49 -79 40z"/>
<path d="M1082 1968 c-20 -64 -20 -80 -7 -133 24 -90 25 -103 6 -126 -22 -28
-55 -19 -69 19 -13 32 -11 74 3 84 13 10 -6 10 -21 0 -15 -9 -40 -63 -39 -83
0 -9 5 -23 12 -30 6 -8 12 -17 12 -22 0 -4 12 -32 26 -62 28 -63 31 -88 12
-104 -11 -8 -18 -7 -30 7 -8 9 -15 20 -14 23 1 3 -11 23 -28 43 -16 21 -29 42
-28 47 2 5 -1 9 -6 9 -5 0 -5 16 -1 36 8 33 7 35 -6 22 -14 -14 -18 -26 -27
-93 -2 -11 -1 -24 2 -30 14 -27 19 -158 8 -205 -7 -27 -28 -72 -38 -80 -12
-10 12 -67 46 -105 51 -58 50 -57 50 -89 -1 -37 46 -73 105 -81 29 -3 54 -15
72 -32 24 -23 28 -24 34 -9 7 19 58 48 68 39 3 -3 25 2 49 11 45 17 67 46 73
96 2 13 10 30 19 36 8 6 15 15 15 19 0 4 11 17 25 29 36 31 39 63 11 116 -20
40 -23 58 -22 151 1 83 -1 106 -11 102 -7 -3 -13 -11 -13 -19 0 -8 -4 -14 -9
-14 -5 0 -8 -12 -6 -27 6 -47 -4 -65 -33 -61 -22 2 -27 8 -28 31 -1 15 4 31
11 35 31 19 49 113 28 155 -18 36 -28 34 -31 -5 -2 -30 -24 -58 -44 -58 -21 0
-30 47 -17 91 20 67 19 70 -27 165 -42 87 -59 89 -33 4 5 -19 12 -46 15 -59 3
-13 6 -28 7 -34 1 -5 -4 -12 -10 -14 -8 -3 -21 15 -33 44 -11 26 -28 61 -37
77 -9 16 -18 48 -21 70 -5 53 -8 54 -20 14z"/>
<path d="M1338 914 c-2 -1 -15 -5 -28 -7 -56 -11 -88 -33 -122 -84 -22 -34
-23 -53 -3 -53 8 0 17 11 21 24 11 44 87 94 134 90 8 -1 27 -2 42 -3 37 -1
104 -67 112 -110 8 -44 -23 -110 -62 -133 -78 -46 -176 -23 -225 54 -22 34
-21 37 2 31 20 -5 83 -68 76 -75 -2 -2 4 -9 15 -16 16 -10 18 -9 17 11 -2 23
-84 113 -94 103 -4 -3 -12 -1 -20 5 -7 6 -13 9 -13 6 0 -3 -16 -1 -34 3 -19 4
-38 5 -41 1 -7 -6 -12 -7 -40 -10 -24 -2 -89 -66 -102 -100 -6 -17 -7 -31 -3
-31 11 0 40 29 40 39 0 13 36 51 49 51 6 0 11 5 11 10 0 6 5 10 11 10 15 0 1
-37 -25 -67 -44 -53 -113 -65 -182 -34 -65 30 -92 90 -75 171 4 21 54 60 93
73 69 24 141 3 169 -50 7 -13 16 -23 21 -23 4 0 8 -7 8 -15 0 -8 7 -15 16 -15
11 0 14 6 8 23 -9 28 -34 67 -43 67 -4 0 -16 8 -27 18 -26 22 -38 26 -100 28
-128 5 -207 -96 -169 -217 9 -29 59 -79 85 -84 10 -2 27 -8 37 -13 17 -8 33
-8 95 1 34 5 99 54 106 79 2 10 8 18 11 18 4 0 8 7 8 15 0 8 -4 15 -9 15 -4 0
-8 4 -8 8 0 4 17 8 38 7 30 0 36 -3 34 -18 -7 -40 63 -111 119 -121 13 -3 26
-5 29 -7 20 -7 71 -1 100 13 156 73 133 263 -37 305 -23 6 -43 9 -45 7z"/>
<path d="M252 628 c-20 -20 -14 -52 17 -99 16 -24 27 -47 25 -51 -17 -27 -82
16 -71 46 4 10 -1 20 -13 26 -15 8 -20 6 -25 -10 -9 -29 2 -56 36 -85 37 -30
78 -32 102 -5 24 29 21 52 -13 95 -31 40 -35 50 -22 59 14 8 52 -24 52 -43 0
-22 30 -37 40 -20 31 49 -87 128 -128 87z"/>
<path d="M1916 614 c-17 -12 -17 -17 -2 -86 9 -40 22 -88 27 -106 10 -32 12
-33 30 -16 14 12 16 21 9 35 -8 14 -4 23 24 44 29 22 38 25 56 15 23 -12 50
-7 50 9 0 5 -40 34 -89 63 -76 47 -90 53 -105 42z m84 -84 c0 -5 -8 -14 -18
-19 -16 -9 -21 -5 -29 24 l-11 34 29 -15 c16 -8 29 -19 29 -24z"/>
<path d="M966 571 c-9 -14 47 -91 76 -104 16 -6 28 -14 28 -17 0 -3 10 -7 23
-8 12 -2 31 -4 42 -6 11 -1 34 2 50 7 17 5 36 9 42 10 20 1 79 70 87 100 10
40 -20 35 -35 -6 -22 -62 -113 -101 -181 -78 -52 17 -106 73 -100 104 3 10
-26 9 -32 -2z"/>
<path d="M1773 524 c-48 -22 -73 -38 -73 -50 0 -16 11 -16 51 0 12 5 22 -7 42
-51 37 -83 50 -99 65 -80 10 11 6 28 -18 80 -34 75 -36 87 -16 87 19 0 36 23
28 37 -5 7 -31 -1 -79 -23z"/>
<path d="M416 492 c-44 -88 -47 -107 -25 -136 11 -13 35 -30 55 -36 48 -16 72
2 113 85 27 54 31 69 20 76 -22 14 -23 13 -59 -57 -37 -72 -48 -81 -79 -64
-26 14 -26 27 1 87 12 26 25 56 30 65 5 12 2 21 -11 27 -15 8 -22 1 -45 -47z"/>
<path d="M635 447 c-17 -52 -54 -181 -52 -183 1 -1 11 -4 21 -6 15 -2 21 5 29
32 11 44 11 44 35 31 10 -6 25 -30 32 -55 8 -30 19 -46 33 -50 29 -7 30 -5 13
45 -18 52 -20 62 -6 54 13 -8 50 31 50 53 0 31 -22 49 -88 70 -46 15 -64 18
-67 9z m80 -51 c58 -24 20 -62 -39 -40 -16 6 -22 35 -9 47 9 9 8 9 48 -7z"/>
<path d="M1565 438 c-33 -11 -62 -21 -64 -23 -1 -2 11 -47 29 -99 29 -89 33
-95 52 -85 12 6 17 17 14 26 -19 50 -18 63 4 63 13 0 38 -12 57 -26 28 -21 38
-24 61 -16 l27 9 -48 30 c-40 26 -45 32 -32 43 28 23 13 80 -25 92 -8 3 -42
-4 -75 -14z m69 -34 c8 -21 2 -29 -34 -44 -34 -14 -35 -14 -44 17 -6 19 -2 24
26 32 46 13 45 13 52 -5z"/>
<path d="M897 368 c-8 -13 -33 -54 -56 -93 -39 -67 -40 -70 -19 -73 13 -2 28
4 37 16 22 27 87 19 97 -12 7 -22 22 -36 40 -36 14 0 -34 201 -50 212 -19 13
-35 9 -49 -14z m42 -95 c1 -7 -8 -10 -20 -8 -32 6 -34 12 -13 42 l18 28 7 -25
c4 -14 7 -30 8 -37z"/>
<path d="M1336 373 c-13 -47 -38 -194 -33 -199 8 -8 49 15 43 24 -9 16 12 33
47 39 29 4 40 1 54 -15 12 -13 24 -18 35 -14 25 10 -86 182 -118 182 -13 0
-25 -8 -28 -17z m57 -67 c18 -26 13 -36 -15 -36 -14 0 -18 7 -16 30 3 36 11
38 31 6z"/>
<path d="M1200 373 c-8 -4 -31 -25 -52 -47 l-37 -41 -1 43 c0 39 -2 43 -22 40
-24 -3 -24 2 -19 -165 1 -26 5 -33 21 -33 16 0 20 7 20 33 0 31 14 57 31 57 4
0 18 -18 30 -40 21 -38 61 -61 76 -46 4 3 -12 33 -35 65 l-41 58 34 33 c40 39
38 59 -5 43z"/>
</g>
</svg>
